<?xml version="1.0" encoding="iso-8859-1"?>
<!-- Uploaded to: SVG Repo, www.svgrepo.com, Generator: SVG Repo Mixer Tools -->
<!DOCTYPE svg PUBLIC "-//W3C//DTD SVG 1.1//EN" "http://www.w3.org/Graphics/SVG/1.1/DTD/svg11.dtd">
<svg fill="#000000" height="800px" width="800px" version="1.1" id="Capa_1" xmlns="http://www.w3.org/2000/svg" xmlns:xlink="http://www.w3.org/1999/xlink" 
	 viewBox="0 0 200 200" xml:space="preserve">
<path d="M142.539,53.868l-18.75,15.953V0H55.104H24.944c-3.286,0-5.952,2.665-5.952,5.953v188.094c0,3.288,2.666,5.953,5.952,5.953
	h30.161h85.029h34.921c3.286,0,5.953-2.665,5.953-5.953V5.953c0-3.288-2.667-5.953-5.953-5.953h-13.766v69.82L142.539,53.868z
	 M49.151,185H33.992V15h15.159V185z M111.111,64.007H71.329V47.303h39.783V64.007z M111.111,34.96H71.329V18.254h39.783V34.96z"/>
</svg>