<?xml version="1.0" ?>
<!-- Uploaded to: SVG Repo, www.svgrepo.com, Generator: SVG Repo Mixer Tools -->
<svg width="800px" height="800px" viewBox="0 0 32 32" id="Camada_1" version="1.1" xml:space="preserve" xmlns="http://www.w3.org/2000/svg" xmlns:xlink="http://www.w3.org/1999/xlink">
<style type="text/css">
	.st0{fill:#FFFFFF;}
</style>
<path d="M6,2h20c2.2,0,4,1.8,4,4v20c0,2.2-1.8,4-4,4H6c-2.2,0-4-1.8-4-4V6C2,3.8,3.8,2,6,2z"/>
<g>
<path class="st0" d="M10.1,19.9h-2v-8.8h3l0.5,3.7h0.1l0.5-3.7h3v8.8h-2v-5.3H13l-0.7,5.3h-1.5l-0.8-5.3h0L10.1,19.9L10.1,19.9z"/>
<path class="st0" d="M15.9,11c0.4,0,2.5,0,3.7,0.1c0.9,0.1,1.4,0.9,1.5,1.8c0,1.7,0,3.5,0.1,5.2c0,0.2,0,0.4-0.1,0.6   c-0.2,0.7-0.6,1.1-1.5,1.2c-1.2,0.1-2.3,0-3.5,0.1c0,0-0.1,0-0.2,0V11z M18.2,12.7v5.6c0.4,0,0.6-0.1,0.6-0.5c0-1.5,0-3.1,0-4.6   C18.8,12.8,18.6,12.6,18.2,12.7z"/>
<path class="st0" d="M5,19.9v-8.8h2.3v8.8H5z"/>
<path class="st0" d="M26.9,14.4c-0.1-0.6-0.5-1-1.1-1.1c-0.6-0.1-1.2,0-1.8,0.6v-2.8h-2.2v8.8h2c0-0.2,0.1-0.3,0.1-0.4c0,0,0,0,0,0   c0.1,0.1,0.2,0.1,0.3,0.2c0.6,0.4,1.2,0.5,1.8,0.2c0.6-0.2,0.8-0.7,0.8-1.3c0-0.7,0.1-1.3,0.1-2C27,15.9,27,15.1,26.9,14.4   L26.9,14.4z M24.7,18.4c0,0.2-0.2,0.4-0.4,0.4c-0.2,0-0.4-0.2-0.4-0.4V15c0-0.2,0.2-0.4,0.4-0.4c0.2,0,0.4,0.2,0.4,0.4V18.4z"/>
</g>
</svg>